<svg width="72" height="72" fill="none" xmlns="http://www.w3.org/2000/svg"><path stroke="#fff" stroke-width="2" d="M1 1h70v70H1z"/><path d="M25.918 27.02V29H16.63v-1.566l5.004-4.752c.564-.54.942-1.008 1.134-1.404.204-.408.306-.81.306-1.206 0-.588-.198-1.038-.594-1.35-.396-.312-.978-.468-1.746-.468-1.284 0-2.268.438-2.952 1.314l-1.638-1.26c.492-.66 1.152-1.17 1.98-1.53.84-.372 1.776-.558 2.808-.558 1.368 0 2.46.324 3.276.972.816.648 1.224 1.53 1.224 2.646 0 .684-.144 1.326-.432 1.926-.288.6-.84 1.284-1.656 2.052l-3.366 3.204h5.94zM55 48h15v2H55zM2 48h31v2H2zm41.293 13.707a1 1 0 001.414 0l6.364-6.364a1 1 0 00-1.414-1.414L44 59.586l-5.657-5.657a1 1 0 00-1.414 1.414l6.364 6.364zM43 39v22h2V39h-2z" fill="#fff"/></svg>