<svg width="73" height="72" fill="none" xmlns="http://www.w3.org/2000/svg"><path stroke="#fff" stroke-width="2" d="M2 1h70v70H2z"/><path stroke="#fff" stroke-width="2" d="M1 1h70v70H1z"/><path d="M21.156 21.602c1.164.144 2.052.54 2.664 1.188.612.648.918 1.458.918 2.43 0 .732-.186 1.398-.558 1.998-.372.6-.936 1.08-1.692 1.44-.744.348-1.656.522-2.736.522-.9 0-1.77-.126-2.61-.378-.828-.264-1.536-.624-2.124-1.08l1.008-1.818c.456.384 1.008.69 1.656.918.66.216 1.338.324 2.034.324.828 0 1.476-.168 1.944-.504.48-.348.72-.816.72-1.404s-.228-1.044-.684-1.368c-.444-.336-1.128-.504-2.052-.504h-1.152v-1.602l2.862-3.402H15.63V16.4h8.586v1.566l-3.06 3.636zM46 2h2v35h-2zm0 50h2v18h-2z" fill="#fff"/><path d="M46 37l1.414-1.414 9.574 9.573-1.414 1.415L46 37z" fill="#fff"/></svg>