<svg width="18" height="18" fill="none" xmlns="http://www.w3.org/2000/svg"><path d="M9 0C4.037 0 0 4.037 0 9s4.037 9 9 9 9-4.037 9-9-4.037-9-9-9zM7.612.914A11.47 11.47 0 005.62 3.147c-.253.374-.48.759-.683 1.154H2.28A8.217 8.217 0 017.612.914zm.99 12.072H5.45a9.336 9.336 0 01-.857-3.546h4.009v3.546zM1.785 5.098h2.786a10.366 10.366 0 00-.775 3.546H.805a8.146 8.146 0 01.98-3.546zM.808 9.44h2.988a10.06 10.06 0 00.777 3.546h-2.74A8.145 8.145 0 01.807 9.44zm1.53 4.343h2.61a11.04 11.04 0 002.649 3.3 8.216 8.216 0 01-5.258-3.3zm6.264 3.078a10.221 10.221 0 01-2.74-3.079h2.74v3.08zm0-8.217h-4.01a9.422 9.422 0 01.841-3.546h3.169v3.546zm0-4.343H5.84c.135-.239.282-.474.439-.707a10.179 10.179 0 012.323-2.45v3.157zm8.593 4.343h-2.99a10.364 10.364 0 00-.776-3.546h2.786a8.147 8.147 0 01.98 3.546zM15.721 4.3h-2.658c-.202-.395-.43-.78-.683-1.154A11.472 11.472 0 0010.388.914a8.217 8.217 0 015.333 3.387zM9.398 1.144a10.18 10.18 0 012.323 2.45c.157.232.304.468.44.707H9.397V1.144zm0 3.954h3.169a9.423 9.423 0 01.84 3.546H9.398V5.098zm0 4.342h4.01a9.337 9.337 0 01-.858 3.546H9.398V9.44zm0 4.343h2.74a10.221 10.221 0 01-2.74 3.078v-3.079zm1.005 3.3a11.04 11.04 0 002.648-3.3h2.61a8.216 8.216 0 01-5.258 3.3zm5.765-4.097h-2.74a10.06 10.06 0 00.776-3.546h2.988a8.146 8.146 0 01-1.024 3.546z" fill="#000"/></svg>