<svg width="18" height="18" fill="none" xmlns="http://www.w3.org/2000/svg"><path d="M13.033 0H4.966A4.973 4.973 0 000 4.967v8.066A4.973 4.973 0 004.967 18h8.066A4.973 4.973 0 0018 13.033V4.967A4.973 4.973 0 0013.033 0zm3.37 13.033a3.374 3.374 0 01-3.37 3.37H4.967a3.374 3.374 0 01-3.37-3.37V4.967a3.374 3.374 0 013.37-3.37h8.066a3.374 3.374 0 013.37 3.37v8.066z" fill="#fff"/><path d="M9 4.362A4.643 4.643 0 004.36 9 4.643 4.643 0 009 13.638 4.643 4.643 0 0013.638 9a4.643 4.643 0 00-4.639-4.638zm0 7.68A3.044 3.044 0 015.957 9 3.044 3.044 0 019 5.96 3.044 3.044 0 0112.04 9 3.044 3.044 0 019 12.041zm4.832-9.034a1.176 1.176 0 00-1.17 1.171c0 .308.125.61.343.828.217.218.52.343.827.343.31 0 .61-.125.829-.343a1.176 1.176 0 000-1.657 1.176 1.176 0 00-.829-.342z" fill="#fff"/></svg>