<?xml version="1.0" encoding="utf-8"?><svg xmlns="http://www.w3.org/2000/svg" xmlns:xlink="http://www.w3.org/1999/xlink"><symbol viewBox="0 0 12 12" id="icon-arrow" xmlns="http://www.w3.org/2000/svg"><path d="M6.012 9.18L12 3.191 10.808 2l-4.82 4.82-4.796-4.795L0 3.217l5.987 5.987.025-.025z"/></symbol><symbol viewBox="0 0 14 9" id="icon-catalog" xmlns="http://www.w3.org/2000/svg"><path fill-rule="evenodd" clip-rule="evenodd" d="M.5 0a.5.5 0 100 1 .5.5 0 000-1zM14 0H3v1h11V0zm0 4H3v1h11V4zM3 8h11v1H3V8zM0 4.5a.5.5 0 111 0 .5.5 0 01-1 0zM.5 8a.5.5 0 100 1 .5.5 0 000-1z"/></symbol><symbol viewBox="0 0 12 12" id="icon-check" xmlns="http://www.w3.org/2000/svg"><path d="M4.012 10.315l7.548-7.549-1.104-1.104L3.99 8.13 1.544 5.685.44 6.79l3.549 3.548.023-.023z"/></symbol><symbol viewBox="0 0 18 18" id="icon-earth" xmlns="http://www.w3.org/2000/svg"><path d="M9 0C4.037 0 0 4.037 0 9s4.037 9 9 9 9-4.037 9-9-4.037-9-9-9zM7.612.914A11.47 11.47 0 005.62 3.147c-.253.374-.48.759-.683 1.154H2.28A8.217 8.217 0 017.612.914zm.99 12.072H5.45a9.336 9.336 0 01-.857-3.546h4.009v3.546zM1.785 5.098h2.786a10.366 10.366 0 00-.775 3.546H.805a8.146 8.146 0 01.98-3.546zM.808 9.44h2.988a10.06 10.06 0 00.777 3.546h-2.74A8.145 8.145 0 01.807 9.44zm1.53 4.343h2.61a11.04 11.04 0 002.649 3.3 8.216 8.216 0 01-5.258-3.3zm6.264 3.078a10.221 10.221 0 01-2.74-3.079h2.74v3.08zm0-8.217h-4.01a9.422 9.422 0 01.841-3.546h3.169v3.546zm0-4.343H5.84c.135-.239.282-.474.439-.707a10.179 10.179 0 012.323-2.45v3.157zm8.593 4.343h-2.99a10.364 10.364 0 00-.776-3.546h2.786a8.147 8.147 0 01.98 3.546zM15.721 4.3h-2.658c-.202-.395-.43-.78-.683-1.154A11.472 11.472 0 0010.388.914a8.217 8.217 0 015.333 3.387zM9.398 1.144a10.18 10.18 0 012.323 2.45c.157.232.304.468.44.707H9.397V1.144zm0 3.954h3.169a9.423 9.423 0 01.84 3.546H9.398V5.098zm0 4.342h4.01a9.337 9.337 0 01-.858 3.546H9.398V9.44zm0 4.343h2.74a10.221 10.221 0 01-2.74 3.078v-3.079zm1.005 3.3a11.04 11.04 0 002.648-3.3h2.61a8.216 8.216 0 01-5.258 3.3zm5.765-4.097h-2.74a10.06 10.06 0 00.776-3.546h2.988a8.146 8.146 0 01-1.024 3.546z"/></symbol><symbol viewBox="0 0 17 12" id="icon-envelope" xmlns="http://www.w3.org/2000/svg"><path fill-rule="evenodd" clip-rule="evenodd" d="M0 0h17v12H0V0zm1 11V2l7.5 4L16 2v9H1zM16 1H1l7.5 4L16 1z"/></symbol><symbol viewBox="0 0 18 18" id="icon-facebook" xmlns="http://www.w3.org/2000/svg"><path d="M6.615 3.486v2.478H4.8v3.03h1.815V18h3.73V8.995h2.503s.234-1.453.348-3.042h-2.837V3.881c0-.31.407-.726.809-.726H13.2V0h-2.763C6.523 0 6.615 3.033 6.615 3.486z"/></symbol><symbol viewBox="0 0 512 512" id="icon-image" xmlns="http://www.w3.org/2000/svg"><path d="M497 0H15C6.716 0 0 6.716 0 15v482c0 8.284 6.716 15 15 15h482c8.285 0 15-6.716 15-15V15c0-8.284-6.715-15-15-15zm-15 407.37l-93.977-112.772a14.998 14.998 0 00-21.31-1.765l-73.677 63.436-129.882-157.994a15 15 0 00-24.638 2.131L30 391.905V30h452v377.37z"/><path d="M352.4 96.4c-34.848 0-63.199 28.352-63.199 63.2s28.352 63.201 63.199 63.201c34.849 0 63.199-28.352 63.199-63.2S387.249 96.4 352.4 96.4z"/></symbol><symbol viewBox="0 0 18 18" id="icon-instagram" xmlns="http://www.w3.org/2000/svg"><path d="M13.033 0H4.966A4.973 4.973 0 000 4.967v8.066A4.973 4.973 0 004.967 18h8.066A4.973 4.973 0 0018 13.033V4.967A4.973 4.973 0 0013.033 0zm3.37 13.033a3.374 3.374 0 01-3.37 3.37H4.967a3.374 3.374 0 01-3.37-3.37V4.967a3.374 3.374 0 013.37-3.37h8.066a3.374 3.374 0 013.37 3.37v8.066z"/><path d="M9 4.362A4.643 4.643 0 004.36 9 4.643 4.643 0 009 13.638 4.643 4.643 0 0013.638 9a4.643 4.643 0 00-4.639-4.638zm0 7.68A3.044 3.044 0 015.957 9 3.044 3.044 0 019 5.96 3.044 3.044 0 0112.04 9 3.044 3.044 0 019 12.041zm4.832-9.034a1.176 1.176 0 00-1.17 1.171c0 .308.125.61.343.828.217.218.52.343.827.343.31 0 .61-.125.829-.343a1.176 1.176 0 000-1.657 1.176 1.176 0 00-.829-.342z"/></symbol><symbol viewBox="0 0 14 12" id="icon-menu" xmlns="http://www.w3.org/2000/svg"><path fill-rule="evenodd" clip-rule="evenodd" d="M0 0h14v1.333H0V0zm0 5.333h14v1.334H0V5.333zm14 5.334H0V12h14v-1.333z"/></symbol><symbol viewBox="0 0 8 12" id="icon-pin" xmlns="http://www.w3.org/2000/svg"><path fill-rule="evenodd" clip-rule="evenodd" d="M7 4c0 .325-.169.933-.54 1.78-.354.805-.834 1.7-1.325 2.547-.4.689-.8 1.334-1.135 1.857a50.971 50.971 0 01-1.135-1.857c-.491-.847-.97-1.742-1.324-2.547C1.169 4.933 1 4.325 1 4a3 3 0 016 0zm1 0c0 1.67-2.285 5.386-3.401 7.1-.36.555-.599.9-.599.9s-.238-.345-.599-.9C2.285 9.387 0 5.67 0 4a4 4 0 118 0zM4 5a1 1 0 100-2 1 1 0 000 2z"/></symbol><symbol viewBox="0 0 20 19" id="icon-star" xmlns="http://www.w3.org/2000/svg"><path d="M10 1.618l1.77 5.446.112.346h6.09l-4.633 3.366-.294.213.112.346 1.77 5.446-4.633-3.366-.294-.213-.294.213-4.633 3.366 1.77-5.446.112-.346-.294-.213L2.028 7.41h6.09l.112-.346L10 1.618z"/></symbol></svg>