<svg version="1.0" xmlns="http://www.w3.org/2000/svg" width="933.333" height="933.333" viewBox="0 0 700 700"><path d="M359.5 26c.3 3 .7 6.6 1 8 1.5 9.4 2 27.7 1 35.5-1.8 13.8-7.5 27.7-16.2 40-2.8 3.9-15.3 17.6-27.9 30.4-12.6 12.8-28.7 29.2-35.8 36.4-7.1 7.3-31.7 32.3-54.6 55.7-23 23.4-47.3 48.1-54 55-11.3 11.6-90.9 92.6-92.6 94.2-.4.5 7.9 9.5 18.4 20 10.5 10.6 29.4 29.8 42 42.6l22.9 23.3 18.6-18.8c10.2-10.3 24.8-25.2 32.4-32.9 7.6-7.8 32.5-33.2 55.3-56.4 22.8-23.2 48.5-49.3 57-58 8.5-8.7 32.5-33.1 53.3-54.2 20.8-21.2 39-40.2 40.6-42.4 13.5-18.4 16.8-43.4 9.5-71.4-3.4-13.1-6.7-21.4-13.9-35.6C404.6 74.1 385.7 48 366.2 28l-7.3-7.5.6 5.5z"/><path d="M451.5 144.5c.3 2.7.8 6.1 1 7.5 4.4 31.6.6 53.9-12.7 73.4-5.8 8.6-7.3 10.2-44.2 48-18.2 18.6-38.4 39.3-45 46-6.5 6.6-29.7 30.3-51.6 52.6-21.9 22.3-45.3 46.1-52 53-6.7 6.9-22.4 22.9-34.9 35.6-12.4 12.7-23.7 24.3-24.9 25.7l-2.4 2.5 32.9 33.2c18 18.2 36.2 36.6 40.3 40.8 4.2 4.2 8.4 8.3 9.3 9.1 1.6 1.3 3 .2 14.4-11.5 6.9-7.1 31.4-32 54.3-55.4 23-23.4 46.4-47.2 52-53 5.6-5.8 29.4-30 52.9-53.9 75.6-77 69.5-70.6 75.1-79.2 4.2-6.6 8.4-18.4 9.8-27.9 1.6-11.1.2-26.2-3.8-41-3.6-13.5-13.2-34.8-21.8-48.8-9.8-15.9-28.5-39.9-42.2-54.2l-7.2-7.5.7 5z"/><path d="M545.7 266.1c.8 5.2 1.6 16 1.8 24 .5 21-2.5 33.6-11.6 48.6-8.1 13.5-7.6 12.9-75.6 82-22 22.4-45.4 46.2-51.8 52.8-6.5 6.6-30.6 31.1-53.5 54.5-23 23.4-47.2 48-53.8 54.7L289.3 595l16.4 16.7c9.1 9.3 28 28.4 42.1 42.6l25.6 25.8 19.6-19.9c17.5-17.9 67.2-68.7 109.2-111.3C612.6 436.6 605.5 444 609.9 436.6c3.7-6.1 7.8-16.8 8.7-22.3.3-2 .8-4.5 1-5.7.9-4.6.3-22.1-1-29.1-2.7-14-9.5-32.8-16.4-45.5-6.2-11.4-8.9-16-13.5-23-4.7-7-15.5-21.9-16.7-23-.3-.3-2.5-3-5-6-6-7.4-8.3-10-16.1-18.3l-6.6-7.1 1.4 9.5z"/></svg>