<svg xmlns="http://www.w3.org/2000/svg" xmlns:xlink="http://www.w3.org/1999/xlink" width="50" height="50"><defs><linearGradient id="a" x1="-80.97" y1="-74.41" x2="-80.97" y2="-41.96" gradientTransform="rotate(45 -122.39 99.854)" gradientUnits="userSpaceOnUse"><stop offset="0" stop-color="#ffc701"/><stop offset="1" stop-color="#e24d21"/></linearGradient><linearGradient id="b" x1="-70.3" y1="-73.03" x2="-70.3" y2="-41.87" xlink:href="#a"/><linearGradient id="c" x1="-59.62" y1="-71.81" x2="-59.62" y2="-41.78" xlink:href="#a"/></defs><g data-name="Layer 2"><g data-name="Layer 1"><path fill="none" d="M0 0h50v50H0z"/><path d="M25.61 1.41c.43 2.94.66 5-2 7.63L5.7 27.29l6 6.08 17.92-18.24c2.89-2.95 1.24-8.38-4.01-13.72z" fill="url(#a)"/><path d="M32.19 9.94c.43 2.94.66 5-2 7.63l-17 17.33 6 6.08 17-17.33c2.9-2.94 1.25-8.37-4-13.71z" fill="url(#b)"/><path d="M38.88 18.35c.43 2.94.66 4.95-2 7.63L20.66 42.5l6 6.09 16.23-16.53c2.89-2.94 1.24-8.37-4.01-13.71z" fill="url(#c)"/></g></g></svg>