<svg width="102" height="23" fill="none" xmlns="http://www.w3.org/2000/svg"><path d="M22.985 23L14.383 0h-5.78l8.67 23h5.712z" fill="#858585"/><path opacity=".15" d="M14.383 0l-2.298 9.2L8.604 0h5.779zm2.89 23l2.3-9.2 3.412 9.2h-5.712z" fill="#000"/><path d="M14.382 0L5.779 23H0L8.604 0h5.778zm17.21 0l-8.606 23h-5.712l8.603-23h5.714z" fill="#B0B0B0"/><path d="M42.626 11.5l-4.204-5.65v5.65h-2.167V2.3h2.04l4.269 5.651V2.3h2.167v9.2h-2.105zm6.896-1.708l-.657 1.709h-2.43l4.007-9.2h2.43l3.876 9.2h-2.496l-.657-1.709h-4.073zm2.102-5.126l-1.313 3.417h2.628l-1.315-3.417zm8.67 6.835l-3.547-9.2h2.496l2.364 6.768L63.971 2.3h2.43l-3.613 9.2h-2.495zm7.816 0V2.3h2.364v9.2h-2.365zm7.159-1.709l-.657 1.709h-2.364l4.006-9.2h2.43l3.876 9.2h-2.496l-.657-1.709h-4.138zm2.102-5.126l-1.314 3.417h2.628L77.37 4.666zm11.033 4.206h-1.836V11.5h-2.367V2.3h4.072c2.43 0 3.81 1.182 3.81 3.22a3.063 3.063 0 01-1.708 2.959l1.97 3.022h-2.627l-1.314-2.63zm0-1.837a1.373 1.373 0 001.576-1.512c0-.986-.591-1.446-1.576-1.446h-1.773v2.89h1.773v.068zm10.903-2.83V11.5h-2.37V4.206h-2.753V2.3H102v1.906h-2.693z" fill="#fff"/><path d="M40.853 20.7l-1.445-4.403-1.511 4.403h-.132l-1.575-4.6h.131l1.51 4.47 1.511-4.47h.132l1.51 4.47 1.445-4.47h.131l-1.577 4.6h-.13zm3.612-4.468v2.04h2.43v.133h-2.43v2.168h2.824v.132H44.4V16.1h2.89v.132h-2.824zm6.5-.132c.853 0 1.378.394 1.378 1.118a1.02 1.02 0 01-.918 1.05 1.202 1.202 0 011.182 1.052v.132c0 .788-.591 1.248-1.642 1.248h-1.837v-4.6h1.836zm-1.708 2.169h1.707c.789 0 1.248-.329 1.248-1.051 0-.723-.46-1.052-1.248-1.052H49.26l-.003 2.103zm0 2.3h1.707c.986 0 1.51-.394 1.51-1.117 0-.724-.59-1.052-1.51-1.052H49.26l-.003 2.17zm9.92-4.14v.131a2.457 2.457 0 00-1.182-.328c-.788 0-1.314.328-1.314.854 0 1.511 2.754.789 2.754 2.43 0 .658-.591 1.118-1.576 1.118a2.294 2.294 0 01-1.576-.657l.132-.131a2.08 2.08 0 001.51.591c.854 0 1.446-.393 1.446-.985 0-1.577-2.754-.79-2.754-2.431 0-.592.592-1.052 1.51-1.052.374.093.729.248 1.05.46v0zm3.678-.197V20.7h-.131v-4.47h-1.642v-.13h3.284v.13h-1.51zm7.028 2.562a1.713 1.713 0 01-1.836 1.906 1.68 1.68 0 01-1.836-1.906V16.1h.132v2.694a1.7 1.7 0 001.707 1.709 1.655 1.655 0 001.708-1.709V16.1h.131v2.694h-.006zM73.43 16.1a2.299 2.299 0 011.594 3.91c-.42.43-.993.677-1.594.69h-1.774v-4.6h1.774zm-1.643 4.47h1.705a2.166 2.166 0 002.167-2.17 2.17 2.17 0 00-2.167-2.168h-1.708l.003 4.337zm5.846.13v-4.6h.132v4.6h-.132zm6.633-2.3a2.368 2.368 0 01-2.762 2.399 2.365 2.365 0 01-1.812-3.178 2.366 2.366 0 012.145-1.52h.065a2.346 2.346 0 012.364 2.3v0zm-4.597 0a2.27 2.27 0 002.612 2.343 2.267 2.267 0 001.786-3.02 2.268 2.268 0 00-2.034-1.491h-.131a2.29 2.29 0 00-2.233 2.168v0z" stroke="#8B8B8B" stroke-width=".283" stroke-miterlimit="10"/></svg>