<svg xmlns="http://www.w3.org/2000/svg" xmlns:xlink="http://www.w3.org/1999/xlink" width="65" height="100"><defs><linearGradient id="a" x1="-7.64" y1="3.85" x2="-7.64" y2="34.38" gradientTransform="rotate(45 -25.564 74.85)" gradientUnits="userSpaceOnUse"><stop offset="0" stop-color="#ffc701"/><stop offset="1" stop-color="#e24d21"/></linearGradient><linearGradient id="b" x1="2.4" y1="5.15" x2="2.4" y2="34.47" xlink:href="#a"/><linearGradient id="c" x1="12.44" y1="6.29" x2="12.44" y2="34.55" xlink:href="#a"/></defs><g data-name="Layer 2"><g data-name="Layer 1"><path d="M32.41 98.64C20.39 88.93 8 78.89 1 64.81V1.18A200.36 200.36 0 0032.5 3.7 200.36 200.36 0 0064 1.18v63.59c-6.49 11.39-16.79 22.51-31.49 34z" fill="#dededc"/><path d="M2 2.35A200.93 200.93 0 0032.5 4.7 200.93 200.93 0 0063 2.35v62.16c-6.34 11-16.32 21.82-30.48 32.94C20.81 88 8.78 78.15 2 64.57V2.35M65 0a198 198 0 01-32.5 2.7A198 198 0 010 0v65c7.17 14.67 19.89 24.77 32.5 35C46.74 89 58 77.42 65 65V0z" fill="#3342b5"/><path d="M6.56 25.09h51.88v38.57C52.86 71.8 43.86 83.6 32.5 90.84A91.72 91.72 0 016.56 63.66zm6.2-17.77v3.15h1.33V7.32H15v3.18h.39v1.65h-.66v-1H11.9V7.32zm5.31 2.23h-1.4v.92h1.57v.72h-2.43V7.32h2.35V8h-1.49v.8h1.4zm1.61-2.23v1.49h1.42V7.32h.9v3.87h-.9V9.57h-1.42v1.62h-.86V7.32zm3.75.73h-1v-.73h2.93v.73h-1v3.14h-.87zm2.36-.68A6.56 6.56 0 0127 7.29a1.82 1.82 0 011.17.31 1.16 1.16 0 01.4.9 1.21 1.21 0 01-.35.91 1.68 1.68 0 01-1.23.41 1.32 1.32 0 01-.3 0v1.39h-.85zm.85 1.76h.29c.46 0 .74-.24.74-.63S27.43 8 27 8a2.05 2.05 0 00-.36 0zm6.09-1.81V8h-1.67v.7a3.33 3.33 0 01.46 0 1.8 1.8 0 011.08.3 1.12 1.12 0 01.44.93 1.13 1.13 0 01-.36.87 2.38 2.38 0 01-1.55.45 6.37 6.37 0 01-.93-.06V7.32zm-1.67 3.23a1.67 1.67 0 00.33 0 .83.83 0 00.56-.2.6.6 0 00.18-.45.54.54 0 00-.2-.43.94.94 0 00-.57-.17 1.51 1.51 0 00-.3 0zm4.81-1h-1.4v.92H36v.72h-2.4V7.32H36V8h-1.53v.8h1.4zm.65-1.99a2.25 2.25 0 011.18-.31c.84 0 1.33.43 1.33 1a.93.93 0 01-.76.91 1 1 0 01.89.92c0 .86-.86 1.16-1.57 1.16a2.37 2.37 0 01-1.14-.24l.18-.67a2.24 2.24 0 00.92.23c.43 0 .7-.19.7-.51s-.44-.51-.8-.51h-.36v-.67h.36c.39 0 .68-.18.68-.48S37.92 8 37.55 8a2 2 0 00-.83.23zm6.28-.24v3.87h-.87V8h-1.34v3.15h-.87V7.32zm3 2.23h-1.4v.92H46v.72h-2.46V7.32h2.35V8H44.4v.8h1.4zm1.6-2.23v1.61h.07l1.05-1.61h1L48.24 9a1.26 1.26 0 01.87.94 12.63 12.63 0 00.44 1.22h-.93a6.55 6.55 0 01-.29-.85c-.13-.44-.3-.77-.77-.77h-.16v1.62h-.85V7.32zm3.35 0v2.9c.19-.46.45-1 .67-1.38l.82-1.52h.88v3.87h-.79V10c0-.59 0-1.12.06-1.62a12.31 12.31 0 01-.65 1.37l-.77 1.4H50V7.32zM6.58 14.36a.61.61 0 01.62-.63h6.4a.62.62 0 01.63.63V15a.62.62 0 01-.63.63H9.08v7.13a.63.63 0 01-.63.62H7.2a.62.62 0 01-.62-.62zM21 13.73c2.52 0 4 1.15 4 3.75s-1.48 3.75-4 3.75h-3.2v1.52a.63.63 0 01-.63.63h-1.24a.64.64 0 01-.63-.63v-8.39a.61.61 0 01.62-.63zm-3.17 1.9v3.7h2.41c1.3 0 2.27-.28 2.27-1.85s-1-1.85-2.27-1.85zm8.83.72c.55-2.14 2.47-2.62 4.39-2.62h3.57a.6.6 0 01.57.62v8.41a.63.63 0 01-.63.62h-1.25a.61.61 0 01-.62-.63v-1.7H28l-.45 1.7a.86.86 0 01-.79.63h-1.3a.46.46 0 01-.46-.62zm1.81 2.8h4.22v-3.52h-1.88A1.74 1.74 0 0029.06 17zm15.65.15h-4.55v3.46a.63.63 0 01-.63.62h-1.23a.64.64 0 01-.64-.63v-8.39a.63.63 0 01.64-.63h1.23a.63.63 0 01.63.63v3h4.55v-3a.63.63 0 01.63-.63H46a.63.63 0 01.64.63v8.39a.64.64 0 01-.64.63h-1.25a.63.63 0 01-.63-.62zm5.81-2.93c.51-2.15 2.37-2.64 4.3-2.64h3.58a.62.62 0 01.62.62v8.41a.62.62 0 01-.62.62h-9.63a.63.63 0 01-.62-.63v-.65a.62.62 0 01.62-.62h.52zm1.32 5.11h4.69v-5.85H54A1.58 1.58 0 0052.36 17z" fill="#3342b5"/><path d="M33.08 33.08c.4 2.76.62 4.66-1.86 7.18L14.34 57.42 20 63.14 36.84 46c2.73-2.79 1.16-7.9-3.76-12.92z" fill="url(#a)"/><path d="M39.26 41.1c.41 2.76.62 4.66-1.85 7.18l-16 16.3L27 70.3 43 54c2.76-2.77 1.2-7.88-3.74-12.9z" fill="url(#b)"/><path d="M45.56 49c.4 2.77.62 4.66-1.86 7.18L28.42 71.73 34 77.46l15.33-15.55C52.05 59.14 50.5 54 45.56 49z" fill="url(#c)"/></g></g></svg>